<?xml version="1.0" encoding="utf-8"?>
<!-- Generator: Adobe Illustrator 18.0.0, SVG Export Plug-In . SVG Version: 6.00 Build 0)  -->
<!DOCTYPE svg PUBLIC "-//W3C//DTD SVG 1.1//EN" "http://www.w3.org/Graphics/SVG/1.1/DTD/svg11.dtd">
<svg version="1.1" id="Layer_1" xmlns="http://www.w3.org/2000/svg" xmlns:xlink="http://www.w3.org/1999/xlink" x="0px" y="0px"
	 width="360px" height="360px" viewBox="0 0 360 360" enable-background="new 0 0 360 360" xml:space="preserve">
<g id="Artwork">
	<g>
		<g>
			<g>
				<path fill="none" d="M184,184h42v42h-42V184z"/>
				<path fill="#607D8B" d="M191,194.5h31.5V191H191c-1.93,0-3.5,1.57-3.5,3.5v19.25H184V219h24.5v-5.25H191V194.5z M224.25,198
					h-10.5c-0.95,0-1.75,0.8-1.75,1.75v17.5c0,0.95,0.8,1.75,1.75,1.75h10.5c0.95,0,1.75-0.8,1.75-1.75v-17.5
					C226,198.8,225.2,198,224.25,198z M222.5,213.75h-7V201.5h7V213.75z"/>
			</g>
			<g>
				<path fill="none" d="M134,184h42v42h-42V184z"/>
				<path fill="#607D8B" d="M169,191h-28c-1.93,0-3.48,1.57-3.48,3.5l-0.02,21c0,1.93,1.57,3.5,3.5,3.5h28c1.93,0,3.5-1.57,3.5-3.5
					v-21C172.5,192.57,170.92,191,169,191z M169,215.5h-28V205h28V215.5z M169,198h-28v-3.5h28V198z"/>
			</g>
			<g>
				<path fill="none" d="M84,184h42v42H84V184z"/>
				<path fill="#607D8B" d="M118.6,196.65l0.03-0.02l-6.53-6.5l-1.85,1.85l3.7,3.7c-1.65,0.62-2.82,2.23-2.82,4.07
					c0,2.43,1.95,4.38,4.38,4.38c0.62,0,1.22-0.12,1.75-0.38v12.62c0,0.95-0.78,1.75-1.75,1.75s-1.75-0.8-1.75-1.75v-7.88
					c0-1.93-1.57-3.5-3.5-3.5h-1.75v-12.25c0-1.93-1.57-3.5-3.5-3.5H94.5c-1.93,0-3.5,1.57-3.5,3.5v28h17.5v-13.12h2.62v8.75
					c0,2.43,1.95,4.38,4.38,4.38s4.38-1.95,4.38-4.38v-16.62C119.87,198.55,119.37,197.45,118.6,196.65z M105,201.5H94.5v-8.75H105
					V201.5z M115.5,201.5c-0.97,0-1.75-0.8-1.75-1.75s0.78-1.75,1.75-1.75s1.75,0.8,1.75,1.75S116.47,201.5,115.5,201.5z"/>
			</g>
			<g>
				<path fill="#607D8B" d="M67.1,192.77c-0.35-1.02-1.35-1.77-2.47-1.77H45.37c-1.15,0-2.12,0.73-2.47,1.77l-3.65,10.48v14
					c0,0.95,0.78,1.75,1.75,1.75h1.75c0.97,0,1.75-0.8,1.75-1.75v-1.75h21v1.75c0,0.95,0.78,1.75,1.75,1.75H69
					c0.97,0,1.75-0.8,1.75-1.75v-14L67.1,192.77z M45.37,210.25c-1.45,0-2.62-1.18-2.62-2.62s1.17-2.62,2.62-2.62
					s2.62,1.18,2.62,2.62S46.82,210.25,45.37,210.25z M64.62,210.25c-1.45,0-2.62-1.18-2.62-2.62s1.17-2.62,2.62-2.62
					c1.45,0,2.62,1.18,2.62,2.62S66.07,210.25,64.62,210.25z M42.75,201.5l2.62-7.88h19.25l2.62,7.88H42.75z"/>
				<path fill="none" d="M34,184h42v42H34V184z"/>
			</g>
			<g>
				<path fill="none" d="M284,184h42v42h-42V184z M284,184h42v42h-42V184z M284,184h42v42h-42V184z M284,184h42v42h-42V184z
					 M284,184h42v42h-42V184z"/>
				<path fill="#607D8B" d="M317.3,191.95l-2.5,2.5c-2.67-2.15-6.1-3.45-9.83-3.45c-3.2,0-6.17,0.95-8.65,2.6l2.55,2.55
					c1.8-1.05,3.88-1.65,6.12-1.65c6.77,0,12.25,5.48,12.25,12.25c0,2.23-0.6,4.32-1.65,6.12l2.55,2.55c1.62-2.48,2.6-5.45,2.6-8.65
					c0-3.73-1.3-7.12-3.45-9.82l2.5-2.5L317.3,191.95z M310.25,185.75h-10.5v3.5h10.5V185.75z M303.25,200.5l3.5,3.5v-6h-3.5V200.5z
					 M289.27,191l-2.23,2.23l4.83,4.82c-1.65,2.5-2.62,5.48-2.62,8.7c0,8.7,7.02,15.75,15.75,15.75c3.23,0,6.2-0.98,8.7-2.62
					l4.38,4.38l2.23-2.23l-13.48-13.48L289.27,191z M305,219c-6.77,0-12.25-5.48-12.25-12.25c0-2.25,0.6-4.35,1.67-6.15l16.75,16.75
					C309.35,218.38,307.25,219,305,219z"/>
			</g>
			<g>
				<path fill="none" d="M234,184h42v42h-42V184z"/>
				<path fill="#607D8B" d="M252.52,200.05l-9.05-9.05l-2.48,2.48l9.05,9.05L252.52,200.05z M259.37,191l3.58,3.57L241,216.52
					l2.48,2.48l21.95-21.95l3.58,3.57V191H259.37z M259.95,207.48l-2.48,2.48l5.48,5.48l-3.58,3.57H269v-9.62l-3.58,3.57
					L259.95,207.48z"/>
			</g>
		</g>
		<g>
			<g>
				<rect x="84" y="34" fill="none" width="42" height="42"/>
				<polygon fill="#607D8B" points="96.25,37.5 96.25,56.75 101.5,56.75 101.5,72.5 113.75,51.5 106.75,51.5 113.75,37.5 				"/>
			</g>
			<g>
				<path fill="none" d="M134,34h42v42h-42V34z"/>
				<path fill="#607D8B" d="M155,53.25c-1.93,0-3.5,1.58-3.5,3.5s1.57,3.5,3.5,3.5s3.5-1.58,3.5-3.5S156.92,53.25,155,53.25z
					 M165.5,56.75c0-5.8-4.7-10.5-10.5-10.5s-10.5,4.7-10.5,10.5c0,3.88,2.1,7.25,5.25,9.07l1.77-3.05c-2.1-1.22-3.5-3.45-3.5-6.03
					c0-3.88,3.12-7,7-7s7,3.12,7,7c0,2.6-1.43,4.83-3.5,6.03l1.77,3.05C163.4,64,165.5,60.62,165.5,56.75z M155,39.25
					c-9.68,0-17.5,7.83-17.5,17.5c0,6.47,3.52,12.1,8.75,15.12l1.75-3.03c-4.18-2.43-7-6.92-7-12.1c0-7.72,6.27-14,14-14
					s14,6.28,14,14c0,5.17-2.82,9.68-7,12.1l1.75,3.03c5.23-3.03,8.75-8.67,8.75-15.12C172.5,47.08,164.65,39.25,155,39.25z"/>
			</g>
			<g>
				<path fill="#607D8B" d="M205,44.33c2.02,0,3.68,1.65,3.68,3.67c0,2.03-1.65,3.67-3.68,3.67s-3.68-1.65-3.68-3.67
					C201.32,45.97,202.97,44.33,205,44.33 M205,60.08c5.2,0,10.68,2.55,10.68,3.67v1.93h-21.35v-1.93
					C194.32,62.62,199.8,60.08,205,60.08 M205,41c-3.88,0-7,3.12-7,7c0,3.85,3.12,7,7,7s7-3.15,7-7C212,44.12,208.87,41,205,41z
					 M205,56.75c-4.68,0-14,2.33-14,7V69h28v-5.25C219,59.08,209.67,56.75,205,56.75z"/>
				<path fill="none" d="M184,34h42v42h-42V34z"/>
			</g>
			<g>
				<path fill="none" d="M234,34h42v42h-42V34z"/>
				<path fill="#607D8B" d="M265.5,46.25l-2.48-2.47l-11.1,11.1l2.48,2.47L265.5,46.25z M272.92,43.78L254.4,62.3l-7.3-7.3
					l-2.48,2.47l9.77,9.78l21-21L272.92,43.78z M234.72,57.47l9.77,9.78l2.48-2.47L237.2,55L234.72,57.47z"/>
			</g>
			<g>
				<path fill="none" d="M34,34h42v42H34V34z"/>
				<path fill="#607D8B" d="M69,55c0-4.45-2.07-8.42-5.33-10.97L62,34H48l-1.67,10.03C43.07,46.6,41,50.55,41,55
					s2.08,8.42,5.33,10.97L48,76h14l1.67-10.03C66.92,63.42,69,59.45,69,55z M44.5,55c0-5.8,4.7-10.5,10.5-10.5S65.5,49.2,65.5,55
					S60.8,65.5,55,65.5S44.5,60.8,44.5,55z"/>
			</g>
			<g>
				<path fill="#607D8B" d="M314.9,45.1c-2.52-2.53-6.02-4.1-9.9-4.1c-7.73,0-13.98,6.28-13.98,14s6.25,14,13.98,14
					c6.52,0,11.98-4.47,13.52-10.5h-3.65c-1.45,4.08-5.3,7-9.9,7c-5.8,0-10.5-4.7-10.5-10.5s4.7-10.5,10.5-10.5
					c2.9,0,5.5,1.2,7.4,3.1l-5.62,5.65H319V41L314.9,45.1z"/>
				<path fill="none" d="M284,34h42v42h-42V34z"/>
			</g>
		</g>
		<g>
			<g>
				<rect x="234" y="84" fill="none" width="42" height="42"/>
				<path fill="#607D8B" d="M260.25,99.75h-10.5v10.5h10.5V99.75z M256.75,106.75h-3.5v-3.5h3.5V106.75z M270.75,103.25v-3.5h-3.5
					v-3.5c0-1.93-1.58-3.5-3.5-3.5h-3.5v-3.5h-3.5v3.5h-3.5v-3.5h-3.5v3.5h-3.5c-1.93,0-3.5,1.57-3.5,3.5v3.5h-3.5v3.5h3.5v3.5h-3.5
					v3.5h3.5v3.5c0,1.93,1.57,3.5,3.5,3.5h3.5v3.5h3.5v-3.5h3.5v3.5h3.5v-3.5h3.5c1.92,0,3.5-1.57,3.5-3.5v-3.5h3.5v-3.5h-3.5v-3.5
					H270.75z M263.75,113.75h-17.5v-17.5h17.5V113.75z"/>
			</g>
			<g>
				<path fill="#607D8B" d="M204.12,122.5c1.93,0,3.5-1.57,3.5-3.5h-7C200.62,120.93,202.2,122.5,204.12,122.5z M215.5,112v-9.62
					c0-5.38-3.73-9.88-8.75-11.05v-1.2c0-1.45-1.18-2.62-2.62-2.62s-2.62,1.18-2.62,2.62v1.2c-5.02,1.2-8.75,5.68-8.75,11.05V112
					l-3.5,3.5v1.75H219v-1.75L215.5,112z M212,113.75h-15.75v-11.38c0-4.35,3.52-7.88,7.88-7.88s7.88,3.53,7.88,7.88V113.75z"/>
				<path fill="none" d="M184,84h42v42h-42V84z"/>
			</g>
			<g>
				<path fill="none" d="M284,84h42v42h-42V84z"/>
				<path fill="#607D8B" d="M303.25,113.75c0,0.95,0.8,1.75,1.75,1.75s1.75-0.8,1.75-1.75c0-0.97-0.8-1.75-1.75-1.75
					S303.25,112.78,303.25,113.75z M303.25,89.25v7h3.5V92.9c5.92,0.85,10.5,5.95,10.5,12.1c0,6.78-5.48,12.25-12.25,12.25
					s-12.25-5.47-12.25-12.25c0-2.95,1.02-5.62,2.75-7.75l9.5,9.5l2.48-2.47l-11.9-11.9l-0.02,0.03c-3.83,2.88-6.3,7.45-6.3,12.6
					c0,8.7,7.02,15.75,15.75,15.75c8.7,0,15.75-7.05,15.75-15.75S313.7,89.25,305,89.25H303.25z M315.5,105
					c0-0.97-0.8-1.75-1.75-1.75S312,104.03,312,105s0.8,1.75,1.75,1.75S315.5,105.97,315.5,105z M294.5,105
					c0,0.97,0.8,1.75,1.75,1.75S298,105.97,298,105s-0.8-1.75-1.75-1.75S294.5,104.03,294.5,105z"/>
			</g>
			<g>
				<path fill="#607D8B" d="M89.25,99.75v10.5h7L105,119V91l-8.75,8.75H89.25z M112.87,105c0-3.1-1.78-5.75-4.38-7.05v14.1
					C111.1,110.75,112.87,108.1,112.87,105z M108.5,89.65v3.62c5.05,1.5,8.75,6.18,8.75,11.72s-3.7,10.22-8.75,11.72v3.62
					c7-1.6,12.25-7.85,12.25-15.35S115.5,91.25,108.5,89.65z"/>
				<path fill="none" d="M84,84h42v42H84V84z"/>
			</g>
			<g>
				<path fill="none" d="M134,84h42v42h-42V84z"/>
				<path fill="#607D8B" d="M155,87.5c1.93,0,3.5,1.57,3.5,3.5s-1.57,3.5-3.5,3.5s-3.5-1.57-3.5-3.5S153.07,87.5,155,87.5z
					 M170.75,99.75h-10.5v22.75h-3.5V112h-3.5v10.5h-3.5V99.75h-10.5v-3.5h31.5V99.75z"/>
			</g>
			<g>
				<path fill="#607D8B" d="M55,89.25c-8.7,0-15.75,7.05-15.75,15.75S46.3,120.75,55,120.75c1.45,0,2.62-1.18,2.62-2.62
					c0-0.68-0.25-1.3-0.67-1.75c-0.4-0.47-0.65-1.07-0.65-1.75c0-1.45,1.17-2.62,2.62-2.62H62c4.82,0,8.75-3.93,8.75-8.75
					C70.75,95.53,63.7,89.25,55,89.25z M45.37,105c-1.45,0-2.62-1.18-2.62-2.62s1.17-2.62,2.62-2.62s2.62,1.18,2.62,2.62
					S46.82,105,45.37,105z M50.62,98C49.17,98,48,96.82,48,95.38s1.17-2.62,2.62-2.62s2.62,1.18,2.62,2.62S52.07,98,50.62,98z
					 M59.37,98c-1.45,0-2.62-1.18-2.62-2.62s1.17-2.62,2.62-2.62S62,93.93,62,95.38S60.82,98,59.37,98z M64.62,105
					c-1.45,0-2.62-1.18-2.62-2.62s1.17-2.62,2.62-2.62c1.45,0,2.62,1.18,2.62,2.62S66.07,105,64.62,105z"/>
				<path fill="none" d="M34,84h42v42H34V84z"/>
			</g>
		</g>
		<g>
			<g>
				<rect x="34" y="134" fill="none" width="42" height="42"/>
				<path fill="#607D8B" d="M55,137.5c-9.67,0-17.5,7.82-17.5,17.5s7.83,17.5,17.5,17.5s17.5-7.82,17.5-17.5S64.67,137.5,55,137.5z
					 M67.1,148h-5.15c-0.58-2.2-1.38-4.27-2.42-6.23C62.75,142.88,65.42,145.1,67.1,148z M55,141.07c1.45,2.1,2.6,4.43,3.35,6.93
					h-6.67C52.4,145.5,53.55,143.18,55,141.07z M41.45,158.5c-0.3-1.12-0.45-2.3-0.45-3.5s0.17-2.38,0.45-3.5h5.9
					c-0.15,1.15-0.25,2.3-0.25,3.5s0.1,2.35,0.25,3.5H41.45z M42.87,162h5.15c0.58,2.2,1.38,4.27,2.42,6.23
					C47.25,167.12,44.55,164.9,42.87,162z M48.05,148H42.9c1.67-2.9,4.35-5.12,7.58-6.23C49.4,143.73,48.6,145.8,48.05,148z
					 M55,168.93c-1.45-2.1-2.6-4.43-3.35-6.93h6.67C57.6,164.5,56.45,166.82,55,168.93z M59.1,158.5h-8.2
					c-0.17-1.15-0.28-2.3-0.28-3.5s0.12-2.35,0.28-3.5h8.2c0.17,1.15,0.28,2.3,0.28,3.5S59.25,157.35,59.1,158.5z M59.55,168.23
					c1.05-1.95,1.85-4.05,2.42-6.23h5.15C65.42,164.9,62.75,167.12,59.55,168.23z M62.62,158.5c0.15-1.15,0.25-2.3,0.25-3.5
					s-0.1-2.35-0.25-3.5h5.9c0.3,1.12,0.45,2.3,0.45,3.5s-0.18,2.38-0.45,3.5H62.62z"/>
			</g>
			<g>
				<path fill="none" d="M284,134h42v42h-42V134z"/>
				<path fill="#607D8B" d="M310.25,135.75h-10.5v3.5h10.5V135.75z M303.25,158.5h3.5V148h-3.5V158.5z M317.3,146.93l2.5-2.5
					c-0.75-0.9-1.58-1.73-2.48-2.48l-2.5,2.5c-2.67-2.15-6.1-3.45-9.83-3.45c-8.7,0-15.75,7.05-15.75,15.75s7.02,15.75,15.75,15.75
					c8.7,0,15.75-7.05,15.75-15.75C320.75,153.02,319.45,149.62,317.3,146.93z M305,169c-6.77,0-12.25-5.48-12.25-12.25
					s5.48-12.25,12.25-12.25s12.25,5.48,12.25,12.25S311.77,169,305,169z"/>
			</g>
			<g>
				<path fill="none" d="M84,134h42v42H84V134z"/>
				<path fill="#607D8B" d="M108.5,144.5l-6.55,8.75l5,6.65l-2.8,2.1c-2.95-3.95-7.88-10.5-7.88-10.5l-10.5,14h38.5L108.5,144.5z"/>
			</g>
			<g>
				<path fill="none" d="M234,134h42v42h-42V134z"/>
				<path fill="#607D8B" d="M246.25,165.5h3.5v-21h-3.5V165.5z M253.25,172.5h3.5v-35h-3.5V172.5z M239.25,158.5h3.5v-7h-3.5V158.5z
					 M260.25,165.5h3.5v-21h-3.5V165.5z M267.25,151.5v7h3.5v-7H267.25z"/>
			</g>
			<g>
				<path fill="none" d="M134,134h42v42h-42V134z"/>
				<path fill="#607D8B" d="M155,148c-3.88,0-7,3.12-7,7s3.12,7,7,7s7-3.12,7-7S158.87,148,155,148z M170.65,153.25
					c-0.8-7.3-6.6-13.1-13.9-13.9v-3.6h-3.5v3.6c-7.3,0.8-13.1,6.6-13.9,13.9h-3.6v3.5h3.6c0.8,7.3,6.6,13.1,13.9,13.9v3.6h3.5v-3.6
					c7.3-0.8,13.1-6.6,13.9-13.9h3.6v-3.5H170.65z M155,167.25c-6.77,0-12.25-5.48-12.25-12.25s5.48-12.25,12.25-12.25
					s12.25,5.48,12.25,12.25S161.77,167.25,155,167.25z"/>
			</g>
			<g>
				<path fill="none" d="M184,134h42v42h-42V134z"/>
				<path fill="#607D8B" d="M215.5,148h-1.75v-3.5c0-4.82-3.93-8.75-8.75-8.75s-8.75,3.93-8.75,8.75v3.5h-1.75
					c-1.93,0-3.5,1.57-3.5,3.5V169c0,1.93,1.57,3.5,3.5,3.5h21c1.93,0,3.5-1.57,3.5-3.5v-17.5C219,149.57,217.42,148,215.5,148z
					 M205,139.07c3,0,5.43,2.43,5.43,5.43v3.5h-10.68v-3.5l0,0C199.75,141.5,202,139.07,205,139.07z M215.5,169h-21v-17.5h21V169z
					 M205,163.75c1.93,0,3.5-1.57,3.5-3.5s-1.57-3.5-3.5-3.5s-3.5,1.57-3.5,3.5S203.07,163.75,205,163.75z"/>
			</g>
		</g>
		<g>
			<g>
				<rect x="84" y="284" fill="none" width="42" height="42"/>
				<g>
					<path fill="#607D8B" d="M100.45,302.38l8.35-14.45c-1.22-0.27-2.5-0.42-3.8-0.42c-4.2,0-8.05,1.48-11.05,3.95l6.43,11.1
						L100.45,302.38z M121.7,299.75c-1.6-5.12-5.5-9.2-10.5-11.1l-6.4,11.1H121.7z M122.15,301.5h-13.1l0.5,0.88l8.32,14.45
						c2.85-3.12,4.62-7.25,4.62-11.83C122.5,303.8,122.37,302.62,122.15,301.5z M98.95,305l-6.82-11.83
						c-2.85,3.12-4.62,7.25-4.62,11.83c0,1.2,0.12,2.38,0.35,3.5h13.1L98.95,305z M88.3,310.25c1.6,5.12,5.5,9.2,10.5,11.1l6.4-11.1
						H88.3z M108.02,310.25l-6.82,11.83c1.22,0.27,2.5,0.42,3.8,0.42c4.2,0,8.05-1.48,11.05-3.95l-6.43-11.1L108.02,310.25z"/>
				</g>
			</g>
			<g>
				<polygon fill="#607D8B" points="137.52,320.75 174.25,305 137.52,289.25 137.5,301.5 163.75,305 137.5,308.5 				"/>
				<rect x="134" y="284" fill="none" width="42" height="42"/>
			</g>
			<g>
				<path fill="none" d="M284,284h42v42h-42V284z"/>
				<path fill="#607D8B" d="M313.75,310.25h3.5v-14c0-1.92-1.58-3.5-3.5-3.5h-14v3.5h14V310.25z M296.25,313.75v-28h-3.5v7h-7v3.5h7
					v17.5c0,1.92,1.58,3.5,3.5,3.5h17.5v7h3.5v-7h7v-3.5H296.25z"/>
			</g>
			<g>
				<rect x="234" y="284" fill="none" width="42" height="42"/>
				<path fill="#607D8B" d="M269,315.5c1.92,0,3.5-1.58,3.5-3.5v-17.5c0-1.92-1.58-3.5-3.5-3.5h-28c-1.93,0-3.5,1.58-3.5,3.5V312
					c0,1.92,1.57,3.5,3.5,3.5h-7v3.5h42v-3.5H269z M241,294.5h28V312h-28V294.5z"/>
			</g>
			<g>
				<path fill="#607D8B" d="M210.25,310.25h-21v3.5h21V310.25z M210.25,296.25h-21v3.5h21V296.25z M189.25,306.75h31.5v-3.5h-31.5
					V306.75z M189.25,320.75h31.5v-3.5h-31.5V320.75z M189.25,289.25v3.5h31.5v-3.5H189.25z"/>
				<path fill="none" d="M184,284h42v42h-42V284z"/>
			</g>
			<g>
				<path fill="#607D8B" d="M67.25,289.25h-24.5c-1.92,0-3.47,1.58-3.47,3.5v24.5c0,1.92,1.55,3.5,3.47,3.5h24.5
					c1.93,0,3.5-1.58,3.5-3.5v-24.5C70.75,290.83,69.17,289.25,67.25,289.25z M67.25,312h-24.5v-14h24.5V312z"/>
				<path fill="none" d="M34,284h42v42H34V284z"/>
			</g>
		</g>
		<g>
			<g>
				<g>
					<g>
						<rect x="234" y="234" fill="none" width="42" height="42"/>
					</g>
				</g>
				<g>
					<path fill="none" d="M244.5,262c-1.93,0-3.5,1.58-3.5,3.5s1.57,3.5,3.5,3.5s3.5-1.58,3.5-3.5S246.42,262,244.5,262z"/>
					<path fill="none" d="M255,254.12c-0.48,0-0.88,0.4-0.88,0.88s0.4,0.88,0.88,0.88s0.88-0.4,0.88-0.88S255.47,254.12,255,254.12z
						"/>
					<path fill="none" d="M244.5,241c-1.93,0-3.5,1.57-3.5,3.5s1.57,3.5,3.5,3.5s3.5-1.57,3.5-3.5S246.42,241,244.5,241z"/>
					<path fill="#607D8B" d="M250.87,247.38c0.4-0.88,0.62-1.85,0.62-2.88c0-3.88-3.12-7-7-7s-7,3.12-7,7s3.12,7,7,7
						c1.02,0,2-0.23,2.88-0.62l4.12,4.12l-4.12,4.12c-0.88-0.4-1.85-0.62-2.88-0.62c-3.88,0-7,3.12-7,7s3.12,7,7,7s7-3.12,7-7
						c0-1.02-0.23-2-0.62-2.88l4.12-4.12l12.25,12.25h5.25V269L250.87,247.38z M244.5,248c-1.93,0-3.5-1.57-3.5-3.5
						s1.57-3.5,3.5-3.5s3.5,1.57,3.5,3.5S246.42,248,244.5,248z M244.5,269c-1.93,0-3.5-1.58-3.5-3.5s1.57-3.5,3.5-3.5
						s3.5,1.58,3.5,3.5S246.42,269,244.5,269z M255,255.88c-0.48,0-0.88-0.4-0.88-0.88s0.4-0.88,0.88-0.88s0.88,0.4,0.88,0.88
						S255.47,255.88,255,255.88z"/>
					<polygon fill="#607D8B" points="267.25,239.25 256.75,249.75 260.25,253.25 272.5,241 272.5,239.25 					"/>
				</g>
			</g>
			<g>
				<path fill="#607D8B" d="M217.25,237.5h-7.32c-0.73-2.02-2.65-3.5-4.93-3.5c-2.27,0-4.2,1.48-4.93,3.5h-7.32
					c-1.93,0-3.5,1.57-3.5,3.5v28c0,1.92,1.57,3.5,3.5,3.5h24.5c1.93,0,3.5-1.58,3.5-3.5v-28
					C220.75,239.07,219.17,237.5,217.25,237.5z M205,237.5c0.98,0,1.75,0.77,1.75,1.75S205.97,241,205,241s-1.75-0.77-1.75-1.75
					S204.02,237.5,205,237.5z M217.25,269h-24.5v-28h3.5v5.25h17.5V241h3.5V269z"/>
				<rect x="184" y="234" fill="none" width="42" height="42"/>
			</g>
			<g>
				<path fill="none" d="M284,234h42v42h-42V234z"/>
				<path fill="#607D8B" d="M296.25,241h-3.5v8.75h3.5V241z M317.25,241h-3.5v15.75h3.5V241z M289.25,256.75h3.5V269h3.5v-12.25h3.5
					v-3.5h-10.5V256.75z M310.25,246.25h-3.5V241h-3.5v5.25h-3.5v3.5h10.5V246.25z M303.25,269h3.5v-15.75h-3.5V269z M310.25,260.25
					v3.5h3.5V269h3.5v-5.25h3.5v-3.5H310.25z"/>
			</g>
			<g>
				<path fill="#607D8B" d="M69.87,239.25c-0.1,0-0.18,0-0.28,0.05l-9.35,3.62l-10.5-3.68l-9.85,3.32
					c-0.38,0.12-0.65,0.45-0.65,0.85v26.45c0,0.48,0.4,0.88,0.88,0.88c0.1,0,0.17,0,0.28-0.05l9.35-3.62l10.5,3.67l9.88-3.33
					c0.38-0.12,0.62-0.45,0.62-0.85v-26.45C70.75,239.65,70.35,239.25,69.87,239.25z M60.25,267.25l-10.5-3.67v-20.83l10.5,3.68
					V267.25z"/>
				<path fill="none" d="M34,234h42v42H34V234z"/>
			</g>
			<g>
				<path fill="#607D8B" d="M169.57,242.18l-2.9-2.93l-2.93,2.93l-2.93-2.93l-2.93,2.93l-2.9-2.93l-2.93,2.93l-2.9-2.93l-2.93,2.93
					l-2.93-2.93l-2.93,2.93l-2.9-2.93v28c0,1.92,1.57,3.5,3.5,3.5h28c1.93,0,3.48-1.58,3.48-3.5l0.02-28L169.57,242.18z M155,267.25
					h-14V255h14V267.25z M169,267.25h-12.25v-1.75H169V267.25z M169,263.75h-12.25V262H169V263.75z M169,260.25h-12.25v-1.75H169
					V260.25z M169,256.75h-12.25V255H169V256.75z M169,253.25h-28V248h28V253.25z"/>
				<path fill="none" d="M134,234h42v42h-42V234z"/>
			</g>
			<g>
				<path fill="#607D8B" d="M109.12,244.57c-0.88-0.35-1.93,0.1-2.28,0.98l-2.38,5.95c-1.65,0.25-2.97,1.75-2.97,3.5
					c0,1.92,1.57,3.5,3.5,3.5s3.5-1.58,3.5-3.5c0-0.8-0.25-1.57-0.78-2.2l2.38-5.95C110.52,246,110.07,245.02,109.12,244.57z
					 M96.25,249.75c-0.97,0-1.75,0.8-1.75,1.75s0.78,1.75,1.75,1.75s1.75-0.8,1.75-1.75S97.22,249.75,96.25,249.75z M103.25,246.25
					c0-0.95-0.78-1.75-1.75-1.75s-1.75,0.8-1.75,1.75s0.78,1.75,1.75,1.75S103.25,247.2,103.25,246.25z M113.75,249.75
					c-0.95,0-1.75,0.8-1.75,1.75s0.8,1.75,1.75,1.75c0.97,0,1.75-0.8,1.75-1.75S114.72,249.75,113.75,249.75z M105,237.5
					c-9.62,0-17.5,7.88-17.5,17.5s7.88,17.5,17.5,17.5s17.5-7.88,17.5-17.5S114.62,237.5,105,237.5z M114.2,265.5
					c-2.45-2.2-5.7-3.5-9.2-3.5s-6.72,1.3-9.2,3.5c-2.97-2.55-4.8-6.3-4.8-10.5c0-7.7,6.3-14,14-14s14,6.3,14,14
					C119,259.2,117.17,262.95,114.2,265.5z"/>
				<path fill="none" d="M84,234h42v42H84V234z"/>
			</g>
		</g>
	</g>
</g>
</svg>
